ModelForces
version=1
nRows=8
nColumns=67
inDegrees=no

This file contains the forces exerted on a model during a simulation.

A force is a generalized force, meaning that it can be either a force (N) or a torque (Nm).

Units are S.I. units (second, meters, Newtons, ...)
Angles are in degrees.

endheader
time	hamstrings_r	bifemsh_r	glut_max_r	iliopsoas_r	rect_fem_r	vasti_r	gastroc_r	soleus_r	tib_ant_r	hamstrings_l	bifemsh_l	glut_max_l	iliopsoas_l	rect_fem_l	vasti_l	gastroc_l	soleus_l	tib_ant_l	foot_r.ground.force.X	foot_r.ground.force.Y	foot_r.ground.force.Z	foot_r.ground.torque.X	foot_r.ground.torque.Y	foot_r.ground.torque.Z	foot_r.calcn_r.force.X	foot_r.calcn_r.force.Y	foot_r.calcn_r.force.Z	foot_r.calcn_r.torque.X	foot_r.calcn_r.torque.Y	foot_r.calcn_r.torque.Z	foot_r.toes_r.force.X	foot_r.toes_r.force.Y	foot_r.toes_r.force.Z	foot_r.toes_r.torque.X	foot_r.toes_r.torque.Y	foot_r.toes_r.torque.Z	foot_l.ground.force.X	foot_l.ground.force.Y	foot_l.ground.force.Z	foot_l.ground.torque.X	foot_l.ground.torque.Y	foot_l.ground.torque.Z	foot_l.calcn_l.force.X	foot_l.calcn_l.force.Y	foot_l.calcn_l.force.Z	foot_l.calcn_l.torque.X	foot_l.calcn_l.torque.Y	foot_l.calcn_l.torque.Z	foot_l.toes_l.force.X	foot_l.toes_l.force.Y	foot_l.toes_l.force.Z	foot_l.toes_l.torque.X	foot_l.toes_l.torque.Y	foot_l.toes_l.torque.Z	HipLimit_r	PotentialEnergy	HipLimit_l	PotentialEnergy	KneeLimit_r	PotentialEnergy	KneeLimit_l	PotentialEnergy	AnkleLimit_r	PotentialEnergy	AnkleLimit_l	PotentialEnergy
      0.38137548	     31.41658504	     31.77876115	     30.94855378	    106.09021020	   1710.28297161	     88.54519695	    478.15895526	    672.50877339	   1078.80169237	   2841.49778567	    481.21818346	     31.92504072	    303.25425009	   1623.69859786	    551.03772573	   3112.45252654	     80.45290865	   1997.38566254	     27.65840303	   -279.47754957	      0.00000000	     25.54983758	      2.52853120	     45.86171776	    -27.65840303	    279.47754957	      0.00000000	      0.00000000	      0.00000000	      4.39368116	      0.00000000	      0.00000000	      0.00000000	      0.00000000	      0.00000000	      0.00000000	    -20.76243658	   -419.81765407	      0.00000000	    -38.83313300	      1.92052538	    -15.46078041	      0.00000000	      0.00000000	      0.00000000	      0.00000000	      0.00000000	      0.00000000	     20.76243658	    419.81765407	      0.00000000	      0.00000000	      0.00000000	     13.82487181	      0.00000000	      0.00000000	      0.00000000	      0.00000000	    -26.93541501	      0.45745192	    -68.12641793	      1.76208822	     -0.74667935	      0.00442234	      0.00000000	      0.00000000
      0.38178310	     31.43543598	     31.77734564	     30.95908043	    106.09406043	   1710.64060411	     88.53583729	    477.98815254	    672.20159789	   1076.49122159	   2841.72037878	    481.20340595	     31.92230534	    300.30482440	   1624.83011745	    544.98405070	   3112.56718672	     80.51337500	   1997.01230825	     27.65632552	   -277.79428896	      0.00000000	     25.39595390	      2.52834128	     45.58283945	    -27.65632552	    277.79428896	      0.00000000	      0.00000000	      0.00000000	      4.37057388	      0.00000000	      0.00000000	      0.00000000	      0.00000000	      0.00000000	      0.00000000	    -21.22775166	   -419.69299382	      0.00000000	    -38.82160193	      1.96356703	    -15.45782018	      0.00000000	      0.00000000	      0.00000000	      0.00000000	      0.00000000	      0.00000000	     21.22775166	    419.69299382	      0.00000000	      0.00000000	      0.00000000	     13.81729017	      0.00000000	      0.00000000	      0.00000000	      0.00000000	    -26.86574899	      0.45573409	    -67.87105337	      1.75292656	     -0.73544877	      0.00436885	      0.00000000	      0.00000000
      0.38244717	     31.46619727	     31.77531071	     30.97514652	    106.10058576	   1711.19928174	     88.50916276	    477.69027572	    671.66124248	   1073.06895362	   2842.07347563	    481.17892352	     31.92442532	    296.42903455	   1626.66495100	    538.45287625	   3112.84043299	     80.62953364	   1996.29319210	     27.68247239	   -275.07064329	      0.00000000	     25.14695821	      2.53073163	     45.13159182	    -27.68247239	    275.07064329	      0.00000000	      0.00000000	      0.00000000	      4.33356362	      0.00000000	      0.00000000	      0.00000000	      0.00000000	      0.00000000	      0.00000000	    -21.38549597	   -419.53364237	      0.00000000	    -38.80686192	      1.97815838	    -15.45256024	      0.00000000	      0.00000000	      0.00000000	      0.00000000	      0.00000000	      0.00000000	     21.38549597	    419.53364237	      0.00000000	      0.00000000	      0.00000000	     13.81250500	      0.00000000	      0.00000000	      0.00000000	      0.00000000	    -26.75727914	      0.45297341	    -67.46958279	      1.73798885	     -0.71509296	      0.00427482	      0.00000000	      0.00000000
      0.38311123	     31.49697655	     31.77367680	     30.98848671	    106.10812579	   1711.72251323	     88.46343875	    477.36368138	    671.06158483	   1070.06989498	   2842.41327751	    481.15632982	     31.92725556	    293.32170167	   1628.47298626	    534.13733714	   3113.19081753	     80.76070604	   1995.48298360	     27.77306025	   -272.37165011	      0.00000000	     24.90021625	      2.53901317	     44.68446635	    -27.77306025	    272.37165011	      0.00000000	      0.00000000	      0.00000000	      4.29765794	      0.00000000	      0.00000000	      0.00000000	      0.00000000	      0.00000000	      0.00000000	    -21.16173963	   -419.49186529	      0.00000000	    -38.80299754	      1.95746092	    -15.45030226	      0.00000000	      0.00000000	      0.00000000	      0.00000000	      0.00000000	      0.00000000	     21.16173963	    419.49186529	      0.00000000	      0.00000000	      0.00000000	     13.81549189	      0.00000000	      0.00000000	      0.00000000	      0.00000000	    -26.65480016	      0.45027263	    -67.08871578	      1.72312777	     -0.69246582	      0.00417114	      0.00000000	      0.00000000
      0.38395656	     31.53609466	     31.77218776	     31.00051666	    106.11998563	   1712.32978778	     88.37361685	    476.90181684	    670.20256285	   1066.85243892	   2842.82295946	    481.13426076	     31.92293946	    290.11452647	   1630.70774602	    530.35876088	   3113.69374169	     80.93697430	   1994.40270321	     28.00013016	   -268.97638036	      0.00000000	     24.58982069	      2.55977190	     44.12205137	    -28.00013016	    268.97638036	      0.00000000	      0.00000000	      0.00000000	      4.25381791	      0.00000000	      0.00000000	      0.00000000	      0.00000000	      0.00000000	      0.00000000	    -20.58605859	   -419.64884357	      0.00000000	    -38.81751803	      1.90421042	    -15.45416166	      0.00000000	      0.00000000	      0.00000000	      0.00000000	      0.00000000	      0.00000000	     20.58605859	    419.64884357	      0.00000000	      0.00000000	      0.00000000	     13.82923757	      0.00000000	      0.00000000	      0.00000000	      0.00000000	    -26.53215370	      0.44693883	    -66.63648472	      1.70448201	     -0.66100140	      0.00402433	      0.00000000	      0.00000000
      0.38480190	     31.57503397	     31.77127349	     31.00717990	    106.13475444	   1712.86642298	     88.24900298	    476.38708711	    669.23441989	   1064.27679849	   2843.20212601	    481.12371956	     31.90368393	    287.50687690	   1632.83716564	    527.63697622	   3114.20428585	     81.11085024	   1993.35180728	     28.35592982	   -265.63439763	      0.00000000	     24.28429663	      2.59229910	     43.56850001	    -28.35592982	    265.63439763	      0.00000000	      0.00000000	      0.00000000	      4.21221902	      0.00000000	      0.00000000	      0.00000000	      0.00000000	      0.00000000	      0.00000000	    -19.80329100	   -420.03009687	      0.00000000	    -38.85278396	      1.83180442	    -15.46561425	      0.00000000	      0.00000000	      0.00000000	      0.00000000	      0.00000000	      0.00000000	     19.80329100	    420.03009687	      0.00000000	      0.00000000	      0.00000000	     13.85258752	      0.00000000	      0.00000000	      0.00000000	      0.00000000	    -26.41682671	      0.44373422	    -66.22223230	      1.68631806	     -0.62743116	      0.00386136	      0.00000000	      0.00000000
      0.38586541	     31.62359952	     31.77069166	     31.00970253	    106.15724311	   1713.44091285	     88.05132756	    475.66939208	    667.87410914	   1061.86947350	   2843.62760920	    481.13185491	     31.85412698	    284.85018971	   1635.32472917	    524.96180375	   3114.79266817	     81.31120476	   1992.16818044	     28.97617511	   -261.52164239	      0.00000000	     23.90830855	      2.64900193	     42.88726885	    -28.97617511	    261.52164239	      0.00000000	      0.00000000	      0.00000000	      4.16317076	      0.00000000	      0.00000000	      0.00000000	      0.00000000	      0.00000000	      0.00000000	    -18.63427672	   -420.75213553	      0.00000000	    -38.91957254	      1.72367060	    -15.48845315	      0.00000000	      0.00000000	      0.00000000	      0.00000000	      0.00000000	      0.00000000	     18.63427672	    420.75213553	      0.00000000	      0.00000000	      0.00000000	     13.89199764	      0.00000000	      0.00000000	      0.00000000	      0.00000000	    -26.27935535	      0.43989105	    -65.75486941	      1.66439763	     -0.58374604	      0.00363648	      0.00000000	      0.00000000
      0.38692892	     31.67150618	     31.77039035	     31.00863899	    106.18305225	   1713.91180427	     87.82456986	    474.88696211	    666.38710632	   1060.26446896	   2843.98630630	    481.16763872	     31.77626986	    282.72477029	   1637.56157919	    522.63516442	   3115.28173787	     81.48153839	   1991.19784327	     29.76477749	   -257.53281426	      0.00000000	     23.54364988	      2.72109596	     42.22647031	    -29.76477749	    257.53281426	      0.00000000	      0.00000000	      0.00000000	      4.11780180	      0.00000000	      0.00000000	      0.00000000	      0.00000000	      0.00000000	      0.00000000	    -17.37129113	   -421.62309967	      0.00000000	    -39.00013672	      1.60684443	    -15.51664845	      0.00000000	      0.00000000	      0.00000000	      0.00000000	      0.00000000	      0.00000000	     17.37129113	    421.62309967	      0.00000000	      0.00000000	      0.00000000	     13.93742735	      0.00000000	      0.00000000	      0.00000000	      0.00000000	    -26.14683038	      0.43624576	    -65.34536320	      1.64374363	     -0.54022875	      0.00339559	      0.00000000	      0.00000000
